<svg width="83" height="72" viewBox="0 0 83 72" fill="none" xmlns="http://www.w3.org/2000/svg">
<circle cx="29.2662" cy="29.2662" r="29.2662" fill="#C3D973"/>
<circle cx="56.4604" cy="29.0072" r="17.6115" fill="#697322"/>
<circle cx="69.6691" cy="50.5036" r="13.2086" fill="#D9D9D2"/>
<circle cx="37.0359" cy="50.5036" r="21.4964" fill="#F26B1D"/>
<circle cx="53.0935" cy="9.58273" r="9.58273" fill="#F24130"/>
<path d="M18.5781 38.6094C18.5781 38.7292 18.5885 38.8438 18.6094 38.9531C18.6354 39.0573 18.6823 39.1484 18.75 39.2266C18.8229 39.3047 18.9193 39.3672 19.0391 39.4141C19.1641 39.4609 19.3255 39.4844 19.5234 39.4844C19.8099 39.4844 20.0729 39.4036 20.3125 39.2422C20.5521 39.0755 20.7578 38.8646 20.9297 38.6094C21.1016 38.349 21.2344 38.0599 21.3281 37.7422C21.4219 37.4193 21.4688 37.099 21.4688 36.7812C21.4688 36.3073 21.4036 35.8906 21.2734 35.5312C21.1484 35.1667 20.9714 34.8594 20.7422 34.6094C20.513 34.3594 20.2422 34.1667 19.9297 34.0312C19.6172 33.8906 19.2786 33.8099 18.9141 33.7891L19.0703 33.3906C19.2995 33.401 19.5182 33.3698 19.7266 33.2969C19.9349 33.224 20.1172 33.0964 20.2734 32.9141C20.4349 32.7318 20.5625 32.487 20.6562 32.1797C20.75 31.8672 20.7969 31.4766 20.7969 31.0078C20.7969 30.6901 20.7578 30.4036 20.6797 30.1484C20.6016 29.8932 20.4974 29.6797 20.3672 29.5078C20.2422 29.3307 20.0938 29.1953 19.9219 29.1016C19.7552 29.0078 19.5833 28.9609 19.4062 28.9609C19.2969 28.9609 19.1901 28.974 19.0859 29C18.987 29.026 18.8984 29.0703 18.8203 29.1328C18.7474 29.1953 18.6875 29.2786 18.6406 29.3828C18.599 29.4818 18.5781 29.6068 18.5781 29.7578V38.6094ZM18.7344 28.3203C20.2448 28.3203 21.3542 28.5573 22.0625 29.0312C22.776 29.5 23.1328 30.1849 23.1328 31.0859C23.1328 31.3099 23.1068 31.5156 23.0547 31.7031C23.0078 31.8906 22.9453 32.0625 22.8672 32.2188C22.7891 32.3698 22.7005 32.5052 22.6016 32.625C22.5026 32.7448 22.401 32.849 22.2969 32.9375C22.0521 33.151 21.776 33.3177 21.4688 33.4375V33.5547C21.9531 33.612 22.388 33.7578 22.7734 33.9922C22.9349 34.0911 23.0938 34.2161 23.25 34.3672C23.4062 34.513 23.5443 34.6927 23.6641 34.9062C23.7891 35.1146 23.888 35.3594 23.9609 35.6406C24.0391 35.9167 24.0781 36.2344 24.0781 36.5938C24.0781 37.1406 23.9792 37.6328 23.7812 38.0703C23.5833 38.5078 23.2891 38.8802 22.8984 39.1875C22.5078 39.4896 22.0208 39.7214 21.4375 39.8828C20.8542 40.0443 20.1771 40.125 19.4062 40.125C18.6927 40.125 18.112 40.0807 17.6641 39.9922C17.2161 39.9036 16.8672 39.776 16.6172 39.6094C16.3672 39.4375 16.1953 39.2318 16.1016 38.9922C16.013 38.7526 15.9688 38.4818 15.9688 38.1797V29.6328C15.9688 29.3464 15.7708 29.2031 15.375 29.2031C15.0885 29.2031 14.7969 29.2474 14.5 29.3359C14.2083 29.4193 13.9427 29.5365 13.7031 29.6875C13.4688 29.8333 13.276 30.0104 13.125 30.2188C12.974 30.4219 12.8984 30.6432 12.8984 30.8828C12.8984 31.0495 12.9193 31.1823 12.9609 31.2812C13.0078 31.3802 13.0599 31.4557 13.1172 31.5078C13.1745 31.5547 13.2318 31.5859 13.2891 31.6016C13.3516 31.612 13.3958 31.6172 13.4219 31.6172C13.5521 31.6172 13.6589 31.5964 13.7422 31.5547C13.8255 31.5078 13.901 31.4609 13.9688 31.4141C14.0365 31.362 14.099 31.3151 14.1562 31.2734C14.2188 31.2266 14.2891 31.2031 14.3672 31.2031C14.4297 31.2031 14.4948 31.2188 14.5625 31.25C14.6354 31.276 14.7005 31.3203 14.7578 31.3828C14.8203 31.4453 14.8724 31.5286 14.9141 31.6328C14.9557 31.7318 14.9766 31.8542 14.9766 32C14.9766 32.2083 14.9349 32.388 14.8516 32.5391C14.7734 32.6901 14.6693 32.8177 14.5391 32.9219C14.4141 33.0208 14.2682 33.0964 14.1016 33.1484C13.9401 33.1953 13.7786 33.2188 13.6172 33.2188C13.3672 33.2188 13.1406 33.1771 12.9375 33.0938C12.7396 33.0052 12.5703 32.8854 12.4297 32.7344C12.2891 32.5833 12.1823 32.4062 12.1094 32.2031C12.0365 32 12 31.7839 12 31.5547C12 31.1224 12.0807 30.7422 12.2422 30.4141C12.4036 30.0807 12.6302 29.7943 12.9219 29.5547C13.2188 29.3151 13.5729 29.1172 13.9844 28.9609C14.3958 28.7995 14.8516 28.6719 15.3516 28.5781C15.8516 28.4844 16.3854 28.4193 16.9531 28.3828C17.526 28.3411 18.1198 28.3203 18.7344 28.3203ZM33.2472 38.6406C33.2472 38.6875 33.2498 38.7396 33.255 38.7969C33.2602 38.849 33.2732 38.901 33.2941 38.9531C33.3149 39 33.3461 39.0391 33.3878 39.0703C33.4295 39.1016 33.4894 39.1172 33.5675 39.1172C33.6665 39.1172 33.755 39.0833 33.8331 39.0156C33.9113 38.9427 33.9842 38.8698 34.0519 38.7969L34.2394 38.9609C34.1613 39.0703 34.0623 39.1927 33.9425 39.3281C33.8279 39.4583 33.6873 39.5833 33.5206 39.7031C33.354 39.8229 33.1639 39.9219 32.9503 40C32.7368 40.0833 32.4946 40.125 32.2238 40.125C31.9946 40.125 31.7941 40.0938 31.6222 40.0312C31.4555 39.974 31.3123 39.8958 31.1925 39.7969C31.0779 39.6927 30.992 39.5729 30.9347 39.4375C30.8774 39.2969 30.8488 39.1484 30.8488 38.9922V38.6406C30.5883 38.9219 30.3149 39.1693 30.0284 39.3828C29.9034 39.4766 29.7706 39.5677 29.63 39.6562C29.4894 39.7448 29.3435 39.8255 29.1925 39.8984C29.0415 39.9661 28.8852 40.0208 28.7238 40.0625C28.5623 40.1042 28.4008 40.125 28.2394 40.125C27.9269 40.125 27.6586 40.0703 27.4347 39.9609C27.2159 39.8464 27.0389 39.6979 26.9034 39.5156C26.768 39.3333 26.6691 39.1276 26.6066 38.8984C26.5441 38.6693 26.5128 38.4401 26.5128 38.2109V33.375C26.5128 33.3281 26.5102 33.2786 26.505 33.2266C26.4998 33.1693 26.4868 33.1172 26.4659 33.0703C26.4451 33.0182 26.4139 32.9766 26.3722 32.9453C26.3305 32.9141 26.2706 32.8984 26.1925 32.8984C26.0988 32.8984 26.0102 32.9349 25.9269 33.0078C25.8488 33.0755 25.7784 33.1458 25.7159 33.2188L25.5206 33.0547C25.5988 32.9453 25.6951 32.8255 25.8097 32.6953C25.9295 32.5599 26.0727 32.4323 26.2394 32.3125C26.406 32.1927 26.5961 32.0938 26.8097 32.0156C27.0284 31.9323 27.2706 31.8906 27.5363 31.8906C27.7654 31.8906 27.9659 31.9219 28.1378 31.9844C28.3097 32.0417 28.4529 32.1224 28.5675 32.2266C28.6821 32.3255 28.768 32.4453 28.8253 32.5859C28.8826 32.7214 28.9113 32.8672 28.9113 33.0234V38.2422C28.9113 38.3151 28.9217 38.3906 28.9425 38.4688C28.9685 38.5417 29.0024 38.6094 29.0441 38.6719C29.0909 38.7344 29.1482 38.7865 29.2159 38.8281C29.2836 38.8646 29.3644 38.8828 29.4581 38.8828C29.6092 38.8828 29.7602 38.8438 29.9113 38.7656C30.0623 38.6875 30.2003 38.5964 30.3253 38.4922C30.4503 38.3828 30.5571 38.276 30.6456 38.1719C30.7394 38.0677 30.8071 37.9896 30.8488 37.9375V33.375C30.8488 33.3281 30.8461 33.2786 30.8409 33.2266C30.8357 33.1693 30.8227 33.1172 30.8019 33.0703C30.781 33.0182 30.7498 32.9766 30.7081 32.9453C30.6665 32.9141 30.6066 32.8984 30.5284 32.8984C30.4347 32.8984 30.3461 32.9349 30.2628 33.0078C30.1847 33.0755 30.1144 33.1458 30.0519 33.2188L29.8566 33.0547C29.9347 32.9453 30.031 32.8255 30.1456 32.6953C30.2654 32.5599 30.4086 32.4323 30.5753 32.3125C30.742 32.1927 30.9321 32.0938 31.1456 32.0156C31.3644 31.9323 31.6066 31.8906 31.8722 31.8906C32.1014 31.8906 32.3019 31.9219 32.4738 31.9844C32.6456 32.0417 32.7889 32.1224 32.9034 32.2266C33.018 32.3255 33.104 32.4453 33.1613 32.5859C33.2185 32.7214 33.2472 32.8672 33.2472 33.0234V38.6406ZM40.5881 36.1094C40.5881 35.6562 40.5647 35.2318 40.5178 34.8359C40.4709 34.4349 40.3954 34.0859 40.2913 33.7891C40.1871 33.487 40.0543 33.25 39.8928 33.0781C39.7314 32.901 39.536 32.8125 39.3069 32.8125C39.1298 32.8125 38.9788 32.8568 38.8538 32.9453C38.734 33.0286 38.635 33.125 38.5569 33.2344C38.4788 33.3438 38.4215 33.4531 38.385 33.5625C38.3485 33.6667 38.3303 33.737 38.3303 33.7734V36.1094C38.3303 37.2448 38.4241 38.0703 38.6116 38.5859C38.8043 39.1016 39.0855 39.3594 39.4553 39.3594C39.8459 39.3594 40.1324 39.0964 40.3147 38.5703C40.497 38.0443 40.5881 37.224 40.5881 36.1094ZM35.9319 29.2188C35.9319 29.0677 35.8954 28.9375 35.8225 28.8281C35.7548 28.7135 35.6376 28.6562 35.4709 28.6562C35.3824 28.6562 35.3043 28.6719 35.2366 28.7031C35.1741 28.7292 35.1064 28.7708 35.0334 28.8281L34.8772 28.6406C34.997 28.5417 35.1298 28.4453 35.2756 28.3516C35.4267 28.2526 35.5881 28.1667 35.76 28.0938C35.9319 28.0208 36.1168 27.9609 36.3147 27.9141C36.5126 27.8672 36.7209 27.8438 36.9397 27.8438C37.2418 27.8438 37.484 27.8906 37.6663 27.9844C37.8538 28.0729 37.9944 28.1849 38.0881 28.3203C38.1871 28.4505 38.2522 28.5938 38.2834 28.75C38.3147 28.901 38.3303 29.0417 38.3303 29.1719V32.6562C38.3928 32.599 38.4735 32.5286 38.5725 32.4453C38.6715 32.3568 38.7965 32.2708 38.9475 32.1875C39.0985 32.1042 39.2782 32.0339 39.4866 31.9766C39.7001 31.9193 39.9501 31.8906 40.2366 31.8906C40.5699 31.8906 40.9032 31.9688 41.2366 32.125C41.5699 32.276 41.8694 32.5156 42.135 32.8438C42.4006 33.1719 42.6168 33.5938 42.7834 34.1094C42.9501 34.625 43.0334 35.2448 43.0334 35.9688C43.0334 36.5365 42.9553 37.0729 42.7991 37.5781C42.648 38.0833 42.4215 38.526 42.1194 38.9062C41.8173 39.2812 41.4397 39.5781 40.9866 39.7969C40.5334 40.0156 40.0074 40.125 39.4084 40.125C38.7574 40.125 38.2079 40.0208 37.76 39.8125C37.3173 39.599 36.9605 39.3151 36.6897 38.9609C36.4189 38.6016 36.2235 38.1849 36.1038 37.7109C35.9892 37.237 35.9319 36.737 35.9319 36.2109V29.2188ZM49.8275 36.1094C49.8275 35.6562 49.8041 35.2318 49.7572 34.8359C49.7103 34.4349 49.6348 34.0859 49.5306 33.7891C49.4265 33.487 49.2936 33.25 49.1322 33.0781C48.9707 32.901 48.7754 32.8125 48.5462 32.8125C48.3692 32.8125 48.2181 32.8568 48.0931 32.9453C47.9733 33.0286 47.8744 33.125 47.7962 33.2344C47.7181 33.3438 47.6608 33.4531 47.6244 33.5625C47.5879 33.6667 47.5697 33.737 47.5697 33.7734V36.1094C47.5697 37.2448 47.6634 38.0703 47.8509 38.5859C48.0436 39.1016 48.3249 39.3594 48.6947 39.3594C49.0853 39.3594 49.3718 39.0964 49.5541 38.5703C49.7364 38.0443 49.8275 37.224 49.8275 36.1094ZM45.1712 29.2188C45.1712 29.0677 45.1348 28.9375 45.0619 28.8281C44.9942 28.7135 44.877 28.6562 44.7103 28.6562C44.6218 28.6562 44.5436 28.6719 44.4759 28.7031C44.4134 28.7292 44.3457 28.7708 44.2728 28.8281L44.1166 28.6406C44.2364 28.5417 44.3692 28.4453 44.515 28.3516C44.666 28.2526 44.8275 28.1667 44.9994 28.0938C45.1712 28.0208 45.3561 27.9609 45.5541 27.9141C45.752 27.8672 45.9603 27.8438 46.1791 27.8438C46.4811 27.8438 46.7233 27.8906 46.9056 27.9844C47.0931 28.0729 47.2337 28.1849 47.3275 28.3203C47.4265 28.4505 47.4916 28.5938 47.5228 28.75C47.5541 28.901 47.5697 29.0417 47.5697 29.1719V32.6562C47.6322 32.599 47.7129 32.5286 47.8119 32.4453C47.9108 32.3568 48.0358 32.2708 48.1869 32.1875C48.3379 32.1042 48.5176 32.0339 48.7259 31.9766C48.9395 31.9193 49.1895 31.8906 49.4759 31.8906C49.8093 31.8906 50.1426 31.9688 50.4759 32.125C50.8093 32.276 51.1087 32.5156 51.3744 32.8438C51.64 33.1719 51.8561 33.5938 52.0228 34.1094C52.1895 34.625 52.2728 35.2448 52.2728 35.9688C52.2728 36.5365 52.1947 37.0729 52.0384 37.5781C51.8874 38.0833 51.6608 38.526 51.3587 38.9062C51.0567 39.2812 50.6791 39.5781 50.2259 39.7969C49.7728 40.0156 49.2468 40.125 48.6478 40.125C47.9968 40.125 47.4473 40.0208 46.9994 39.8125C46.5567 39.599 46.1999 39.3151 45.9291 38.9609C45.6582 38.6016 45.4629 38.1849 45.3431 37.7109C45.2285 37.237 45.1712 36.737 45.1712 36.2109V29.2188ZM57.0825 39.3125C57.0825 39.3802 57.0695 39.4609 57.0434 39.5547C57.0226 39.6484 56.9679 39.737 56.8794 39.8203C56.796 39.9036 56.671 39.974 56.5044 40.0312C56.3429 40.0938 56.1242 40.125 55.8481 40.125C55.5721 40.125 55.3559 40.0911 55.1997 40.0234C55.0434 39.9609 54.9263 39.8854 54.8481 39.7969C54.7752 39.7083 54.7283 39.6172 54.7075 39.5234C54.6919 39.4297 54.6841 39.3542 54.6841 39.2969V29.2188C54.6841 29.0677 54.6476 28.9375 54.5747 28.8281C54.507 28.7135 54.3898 28.6562 54.2231 28.6562C54.1346 28.6562 54.0565 28.6719 53.9888 28.7031C53.9263 28.7292 53.8585 28.7708 53.7856 28.8281L53.6294 28.6406C53.7492 28.5417 53.882 28.4453 54.0278 28.3516C54.1736 28.2526 54.3325 28.1667 54.5044 28.0938C54.6815 28.0208 54.869 27.9609 55.0669 27.9141C55.2648 27.8672 55.4731 27.8438 55.6919 27.8438C56.0304 27.8438 56.2934 27.8906 56.4809 27.9844C56.6684 28.0729 56.8065 28.1849 56.895 28.3203C56.9835 28.4505 57.0356 28.5911 57.0513 28.7422C57.0721 28.888 57.0825 29.0182 57.0825 29.1328V39.3125ZM61.9547 36.4141C61.9547 36.5807 61.9781 36.763 62.025 36.9609C62.0771 37.1536 62.15 37.349 62.2438 37.5469C62.3375 37.7448 62.4521 37.9349 62.5875 38.1172C62.7281 38.2943 62.887 38.4531 63.0641 38.5938C63.2464 38.7344 63.4469 38.8464 63.6656 38.9297C63.8844 39.013 64.124 39.0547 64.3844 39.0547C64.5667 39.0547 64.7359 39.0339 64.8922 38.9922C65.0484 38.9505 65.1943 38.8932 65.3297 38.8203C65.4651 38.7474 65.5953 38.6641 65.7203 38.5703C65.8453 38.4714 65.9703 38.3672 66.0953 38.2578L66.2906 38.4453C66.1708 38.6068 66.0172 38.7839 65.8297 38.9766C65.6422 39.1693 65.4156 39.3516 65.15 39.5234C64.8844 39.6901 64.5745 39.8307 64.2203 39.9453C63.8661 40.0547 63.4625 40.1094 63.0094 40.1094C62.5563 40.1094 62.1135 40.0286 61.6813 39.8672C61.2542 39.7005 60.874 39.4531 60.5406 39.125C60.2073 38.7969 59.9391 38.388 59.7359 37.8984C59.538 37.4089 59.4391 36.8359 59.4391 36.1797C59.4391 35.7057 59.499 35.2708 59.6188 34.875C59.7385 34.4792 59.9 34.1224 60.1031 33.8047C60.3115 33.487 60.551 33.2083 60.8219 32.9688C61.0979 32.7292 61.387 32.5312 61.6891 32.375C61.9911 32.2135 62.2984 32.0938 62.6109 32.0156C62.9286 31.9323 63.2333 31.8906 63.525 31.8906C63.9104 31.8906 64.2464 31.9323 64.5328 32.0156C64.8193 32.099 65.0563 32.2109 65.2438 32.3516C65.4365 32.4922 65.5797 32.6562 65.6734 32.8438C65.7672 33.026 65.8141 33.2188 65.8141 33.4219C65.8141 33.6667 65.7438 33.888 65.6031 34.0859C65.4625 34.2786 65.275 34.4479 65.0406 34.5938L61.9547 36.4141ZM63.525 34.8281C63.5927 34.7865 63.6474 34.7474 63.6891 34.7109C63.7359 34.6693 63.7724 34.6224 63.7984 34.5703C63.8245 34.513 63.8427 34.4453 63.8531 34.3672C63.8688 34.2839 63.8766 34.1823 63.8766 34.0625C63.8766 33.9323 63.8609 33.7891 63.8297 33.6328C63.8036 33.4714 63.7568 33.3203 63.6891 33.1797C63.6214 33.0391 63.5354 32.9219 63.4313 32.8281C63.3271 32.7344 63.2021 32.6875 63.0563 32.6875C62.8688 32.6875 62.7073 32.7448 62.5719 32.8594C62.4417 32.9688 62.3323 33.112 62.2438 33.2891C62.1604 33.4661 62.0927 33.6693 62.0406 33.8984C61.9938 34.1224 61.9573 34.349 61.9313 34.5781C61.9052 34.8073 61.8896 35.0286 61.8844 35.2422C61.8792 35.4505 61.8766 35.6276 61.8766 35.7734L63.525 34.8281Z" fill="black"/>
</svg>
