<svg width="83" height="72" viewBox="0 0 83 72" fill="none" xmlns="http://www.w3.org/2000/svg">
<circle cx="29.2662" cy="29.2662" r="29.2662" fill="#C3D973"/>
<circle cx="56.4604" cy="29.0072" r="17.6115" fill="#697322"/>
<circle cx="69.6691" cy="50.5036" r="13.2086" fill="#D9D9D2"/>
<circle cx="37.0359" cy="50.5036" r="21.4964" fill="#F26B1D"/>
<circle cx="53.0935" cy="9.58273" r="9.58273" fill="#F24130"/>
<path d="M16.4004 38.4355C16.4004 38.5703 16.4121 38.6992 16.4355 38.8223C16.4648 38.9395 16.5176 39.042 16.5938 39.1299C16.6758 39.2178 16.7842 39.2881 16.9189 39.3408C17.0596 39.3936 17.2412 39.4199 17.4639 39.4199C17.7861 39.4199 18.082 39.3291 18.3516 39.1475C18.6211 38.96 18.8525 38.7227 19.0459 38.4355C19.2393 38.1426 19.3887 37.8174 19.4941 37.46C19.5996 37.0967 19.6523 36.7363 19.6523 36.3789C19.6523 35.8457 19.5791 35.377 19.4326 34.9727C19.292 34.5625 19.0928 34.2168 18.835 33.9355C18.5771 33.6543 18.2725 33.4375 17.9209 33.2852C17.5693 33.127 17.1885 33.0361 16.7783 33.0127L16.9541 32.5645C17.2119 32.5762 17.458 32.541 17.6924 32.459C17.9268 32.377 18.1318 32.2334 18.3076 32.0283C18.4893 31.8232 18.6328 31.5479 18.7383 31.2021C18.8438 30.8506 18.8965 30.4111 18.8965 29.8838C18.8965 29.5264 18.8525 29.2041 18.7646 28.917C18.6768 28.6299 18.5596 28.3896 18.4131 28.1963C18.2725 27.9971 18.1055 27.8447 17.9121 27.7393C17.7246 27.6338 17.5312 27.5811 17.332 27.5811C17.209 27.5811 17.0889 27.5957 16.9717 27.625C16.8604 27.6543 16.7607 27.7041 16.6729 27.7744C16.5908 27.8447 16.5234 27.9385 16.4707 28.0557C16.4238 28.167 16.4004 28.3076 16.4004 28.4775V38.4355ZM16.5762 26.8604C18.2754 26.8604 19.5234 27.127 20.3203 27.6602C21.123 28.1875 21.5244 28.958 21.5244 29.9717C21.5244 30.2236 21.4951 30.4551 21.4365 30.666C21.3838 30.877 21.3135 31.0703 21.2256 31.2461C21.1377 31.416 21.0381 31.5684 20.9268 31.7031C20.8154 31.8379 20.7012 31.9551 20.584 32.0547C20.3086 32.2949 19.998 32.4824 19.6523 32.6172V32.749C20.1973 32.8135 20.6865 32.9775 21.1201 33.2412C21.3018 33.3525 21.4805 33.4932 21.6562 33.6631C21.832 33.8271 21.9873 34.0293 22.1221 34.2695C22.2627 34.5039 22.374 34.7793 22.4561 35.0957C22.5439 35.4062 22.5879 35.7637 22.5879 36.168C22.5879 36.7832 22.4766 37.3369 22.2539 37.8291C22.0312 38.3213 21.7002 38.7402 21.2607 39.0859C20.8213 39.4258 20.2734 39.6865 19.6172 39.8682C18.9609 40.0498 18.1992 40.1406 17.332 40.1406C16.5293 40.1406 15.876 40.0908 15.3721 39.9912C14.8682 39.8916 14.4756 39.748 14.1943 39.5605C13.9131 39.3672 13.7197 39.1357 13.6143 38.8662C13.5146 38.5967 13.4648 38.292 13.4648 37.9521V28.3369C13.4648 28.0146 13.2422 27.8535 12.7969 27.8535C12.4746 27.8535 12.1465 27.9033 11.8125 28.0029C11.4844 28.0967 11.1855 28.2285 10.916 28.3984C10.6523 28.5625 10.4355 28.7617 10.2656 28.9961C10.0957 29.2246 10.0107 29.4736 10.0107 29.7432C10.0107 29.9307 10.0342 30.0801 10.0811 30.1914C10.1338 30.3027 10.1924 30.3877 10.2568 30.4463C10.3213 30.499 10.3857 30.5342 10.4502 30.5518C10.5205 30.5635 10.5703 30.5693 10.5996 30.5693C10.7461 30.5693 10.8662 30.5459 10.96 30.499C11.0537 30.4463 11.1387 30.3936 11.2148 30.3408C11.291 30.2822 11.3613 30.2295 11.4258 30.1826C11.4961 30.1299 11.5752 30.1035 11.6631 30.1035C11.7334 30.1035 11.8066 30.1211 11.8828 30.1562C11.9648 30.1855 12.0381 30.2354 12.1025 30.3057C12.1729 30.376 12.2314 30.4697 12.2783 30.5869C12.3252 30.6982 12.3486 30.8359 12.3486 31C12.3486 31.2344 12.3018 31.4365 12.208 31.6064C12.1201 31.7764 12.0029 31.9199 11.8564 32.0371C11.7158 32.1484 11.5518 32.2334 11.3643 32.292C11.1826 32.3447 11.001 32.3711 10.8193 32.3711C10.5381 32.3711 10.2832 32.3242 10.0547 32.2305C9.83203 32.1309 9.6416 31.9961 9.4834 31.8262C9.3252 31.6562 9.20508 31.457 9.12305 31.2285C9.04102 31 9 30.7568 9 30.499C9 30.0127 9.09082 29.585 9.27246 29.2158C9.4541 28.8408 9.70898 28.5186 10.0371 28.249C10.3711 27.9795 10.7695 27.7568 11.2324 27.5811C11.6953 27.3994 12.208 27.2559 12.7705 27.1504C13.333 27.0449 13.9336 26.9717 14.5723 26.9307C15.2168 26.8838 15.8848 26.8604 16.5762 26.8604ZM32.9031 38.4707C32.9031 38.5234 32.906 38.582 32.9119 38.6465C32.9177 38.7051 32.9324 38.7637 32.9558 38.8223C32.9793 38.875 33.0144 38.9189 33.0613 38.9541C33.1082 38.9893 33.1755 39.0068 33.2634 39.0068C33.3748 39.0068 33.4744 38.9688 33.5623 38.8926C33.6502 38.8105 33.7322 38.7285 33.8084 38.6465L34.0193 38.8311C33.9314 38.9541 33.8201 39.0918 33.6853 39.2441C33.5564 39.3906 33.3982 39.5312 33.2107 39.666C33.0232 39.8008 32.8093 39.9121 32.5691 40C32.3289 40.0938 32.0564 40.1406 31.7517 40.1406C31.4939 40.1406 31.2683 40.1055 31.075 40.0352C30.8875 39.9707 30.7263 39.8828 30.5916 39.7715C30.4627 39.6543 30.366 39.5195 30.3015 39.3672C30.2371 39.209 30.2048 39.042 30.2048 38.8662V38.4707C29.9119 38.7871 29.6043 39.0654 29.282 39.3057C29.1414 39.4111 28.992 39.5137 28.8337 39.6133C28.6755 39.7129 28.5115 39.8037 28.3416 39.8857C28.1716 39.9619 27.9959 40.0234 27.8142 40.0703C27.6326 40.1172 27.4509 40.1406 27.2693 40.1406C26.9177 40.1406 26.616 40.0791 26.364 39.9561C26.1179 39.8271 25.9187 39.6602 25.7664 39.4551C25.614 39.25 25.5027 39.0186 25.4324 38.7607C25.3621 38.5029 25.3269 38.2451 25.3269 37.9873V32.5469C25.3269 32.4941 25.324 32.4385 25.3181 32.3799C25.3123 32.3154 25.2976 32.2568 25.2742 32.2041C25.2507 32.1455 25.2156 32.0986 25.1687 32.0635C25.1218 32.0283 25.0545 32.0107 24.9666 32.0107C24.8611 32.0107 24.7615 32.0518 24.6677 32.1338C24.5798 32.21 24.5007 32.2891 24.4304 32.3711L24.2107 32.1865C24.2986 32.0635 24.407 31.9287 24.5359 31.7822C24.6707 31.6299 24.8318 31.4863 25.0193 31.3516C25.2068 31.2168 25.4207 31.1055 25.6609 31.0176C25.907 30.9238 26.1795 30.877 26.4783 30.877C26.7361 30.877 26.9617 30.9121 27.155 30.9824C27.3484 31.0469 27.5095 31.1377 27.6384 31.2549C27.7673 31.3662 27.864 31.501 27.9285 31.6592C27.9929 31.8115 28.0252 31.9756 28.0252 32.1514V38.0225C28.0252 38.1045 28.0369 38.1895 28.0603 38.2773C28.0896 38.3594 28.1277 38.4355 28.1746 38.5059C28.2273 38.5762 28.2918 38.6348 28.3679 38.6816C28.4441 38.7227 28.5349 38.7432 28.6404 38.7432C28.8103 38.7432 28.9802 38.6992 29.1502 38.6113C29.3201 38.5234 29.4754 38.4209 29.616 38.3037C29.7566 38.1807 29.8767 38.0605 29.9763 37.9434C30.0818 37.8262 30.158 37.7383 30.2048 37.6797V32.5469C30.2048 32.4941 30.2019 32.4385 30.1961 32.3799C30.1902 32.3154 30.1755 32.2568 30.1521 32.2041C30.1287 32.1455 30.0935 32.0986 30.0466 32.0635C29.9998 32.0283 29.9324 32.0107 29.8445 32.0107C29.739 32.0107 29.6394 32.0518 29.5457 32.1338C29.4578 32.21 29.3787 32.2891 29.3084 32.3711L29.0886 32.1865C29.1765 32.0635 29.2849 31.9287 29.4138 31.7822C29.5486 31.6299 29.7097 31.4863 29.8972 31.3516C30.0847 31.2168 30.2986 31.1055 30.5388 31.0176C30.7849 30.9238 31.0574 30.877 31.3562 30.877C31.614 30.877 31.8396 30.9121 32.033 30.9824C32.2263 31.0469 32.3875 31.1377 32.5164 31.2549C32.6453 31.3662 32.742 31.501 32.8064 31.6592C32.8709 31.8115 32.9031 31.9756 32.9031 32.1514V38.4707ZM41.1616 35.623C41.1616 35.1133 41.1353 34.6357 41.0825 34.1904C41.0298 33.7393 40.9448 33.3467 40.8277 33.0127C40.7105 32.6729 40.5611 32.4062 40.3794 32.2129C40.1978 32.0137 39.978 31.9141 39.7202 31.9141C39.521 31.9141 39.3511 31.9639 39.2105 32.0635C39.0757 32.1572 38.9644 32.2656 38.8765 32.3887C38.7886 32.5117 38.7241 32.6348 38.6831 32.7578C38.6421 32.875 38.6216 32.9541 38.6216 32.9951V35.623C38.6216 36.9004 38.7271 37.8291 38.938 38.4092C39.1548 38.9893 39.4712 39.2793 39.8872 39.2793C40.3267 39.2793 40.6489 38.9834 40.854 38.3916C41.0591 37.7998 41.1616 36.877 41.1616 35.623ZM35.9234 27.8711C35.9234 27.7012 35.8823 27.5547 35.8003 27.4316C35.7241 27.3027 35.5923 27.2383 35.4048 27.2383C35.3052 27.2383 35.2173 27.2559 35.1411 27.291C35.0708 27.3203 34.9946 27.3672 34.9126 27.4316L34.7368 27.2207C34.8716 27.1094 35.021 27.001 35.1851 26.8955C35.355 26.7842 35.5366 26.6875 35.73 26.6055C35.9234 26.5234 36.1314 26.4561 36.354 26.4033C36.5767 26.3506 36.8111 26.3242 37.0571 26.3242C37.397 26.3242 37.6695 26.377 37.8745 26.4824C38.0855 26.582 38.2437 26.708 38.3491 26.8604C38.4605 27.0068 38.5337 27.168 38.5689 27.3438C38.604 27.5137 38.6216 27.6719 38.6216 27.8184V31.7383C38.6919 31.6738 38.7827 31.5947 38.8941 31.501C39.0054 31.4014 39.146 31.3047 39.3159 31.2109C39.4859 31.1172 39.688 31.0381 39.9224 30.9736C40.1626 30.9092 40.4439 30.877 40.7661 30.877C41.1411 30.877 41.5161 30.9648 41.8911 31.1406C42.2661 31.3105 42.603 31.5801 42.9019 31.9492C43.2007 32.3184 43.4439 32.793 43.6314 33.373C43.8189 33.9531 43.9126 34.6504 43.9126 35.4648C43.9126 36.1035 43.8247 36.707 43.6489 37.2754C43.479 37.8438 43.2241 38.3418 42.8843 38.7695C42.5445 39.1914 42.1196 39.5254 41.6099 39.7715C41.1001 40.0176 40.5083 40.1406 39.8345 40.1406C39.1021 40.1406 38.4839 40.0234 37.98 39.7891C37.482 39.5488 37.0806 39.2295 36.7759 38.8311C36.4712 38.4268 36.2515 37.958 36.1167 37.4248C35.9878 36.8916 35.9234 36.3291 35.9234 35.7373V27.8711ZM51.5559 35.623C51.5559 35.1133 51.5296 34.6357 51.4768 34.1904C51.4241 33.7393 51.3391 33.3467 51.222 33.0127C51.1048 32.6729 50.9554 32.4062 50.7737 32.2129C50.5921 32.0137 50.3723 31.9141 50.1145 31.9141C49.9153 31.9141 49.7454 31.9639 49.6048 32.0635C49.47 32.1572 49.3587 32.2656 49.2708 32.3887C49.1829 32.5117 49.1184 32.6348 49.0774 32.7578C49.0364 32.875 49.0159 32.9541 49.0159 32.9951V35.623C49.0159 36.9004 49.1214 37.8291 49.3323 38.4092C49.5491 38.9893 49.8655 39.2793 50.2815 39.2793C50.721 39.2793 51.0432 38.9834 51.2483 38.3916C51.4534 37.7998 51.5559 36.877 51.5559 35.623ZM46.3177 27.8711C46.3177 27.7012 46.2766 27.5547 46.1946 27.4316C46.1184 27.3027 45.9866 27.2383 45.7991 27.2383C45.6995 27.2383 45.6116 27.2559 45.5354 27.291C45.4651 27.3203 45.3889 27.3672 45.3069 27.4316L45.1311 27.2207C45.2659 27.1094 45.4153 27.001 45.5794 26.8955C45.7493 26.7842 45.9309 26.6875 46.1243 26.6055C46.3177 26.5234 46.5257 26.4561 46.7483 26.4033C46.971 26.3506 47.2054 26.3242 47.4514 26.3242C47.7913 26.3242 48.0638 26.377 48.2688 26.4824C48.4798 26.582 48.638 26.708 48.7434 26.8604C48.8548 27.0068 48.928 27.168 48.9632 27.3438C48.9983 27.5137 49.0159 27.6719 49.0159 27.8184V31.7383C49.0862 31.6738 49.177 31.5947 49.2884 31.501C49.3997 31.4014 49.5403 31.3047 49.7102 31.2109C49.8802 31.1172 50.0823 31.0381 50.3167 30.9736C50.5569 30.9092 50.8382 30.877 51.1604 30.877C51.5354 30.877 51.9104 30.9648 52.2854 31.1406C52.6604 31.3105 52.9973 31.5801 53.2962 31.9492C53.595 32.3184 53.8382 32.793 54.0257 33.373C54.2132 33.9531 54.3069 34.6504 54.3069 35.4648C54.3069 36.1035 54.219 36.707 54.0432 37.2754C53.8733 37.8438 53.6184 38.3418 53.2786 38.7695C52.9388 39.1914 52.5139 39.5254 52.0042 39.7715C51.4944 40.0176 50.9026 40.1406 50.2288 40.1406C49.4964 40.1406 48.8782 40.0234 48.3743 39.7891C47.8763 39.5488 47.4749 39.2295 47.1702 38.8311C46.8655 38.4268 46.6458 37.958 46.511 37.4248C46.3821 36.8916 46.3177 36.3291 46.3177 35.7373V27.8711ZM59.7178 39.2266C59.7178 39.3027 59.7032 39.3936 59.6739 39.499C59.6504 39.6045 59.5889 39.7041 59.4893 39.7979C59.3955 39.8916 59.2549 39.9707 59.0674 40.0352C58.8858 40.1055 58.6397 40.1406 58.3291 40.1406C58.0186 40.1406 57.7754 40.1025 57.5996 40.0264C57.4239 39.9561 57.292 39.8711 57.2041 39.7715C57.1221 39.6719 57.0694 39.5693 57.0459 39.4639C57.0284 39.3584 57.0196 39.2734 57.0196 39.209V27.8711C57.0196 27.7012 56.9786 27.5547 56.8965 27.4316C56.8204 27.3027 56.6885 27.2383 56.501 27.2383C56.4014 27.2383 56.3135 27.2559 56.2373 27.291C56.167 27.3203 56.0909 27.3672 56.0088 27.4316L55.833 27.2207C55.9678 27.1094 56.1172 27.001 56.2813 26.8955C56.4454 26.7842 56.6241 26.6875 56.8174 26.6055C57.0166 26.5234 57.2276 26.4561 57.4502 26.4033C57.6729 26.3506 57.9073 26.3242 58.1534 26.3242C58.5342 26.3242 58.8301 26.377 59.0411 26.4824C59.252 26.582 59.4073 26.708 59.5069 26.8604C59.6065 27.0068 59.6651 27.165 59.6827 27.335C59.7061 27.499 59.7178 27.6455 59.7178 27.7744V39.2266ZM65.199 35.9658C65.199 36.1533 65.2254 36.3584 65.2781 36.5811C65.3367 36.7979 65.4188 37.0176 65.5242 37.2402C65.6297 37.4629 65.7586 37.6768 65.9109 37.8818C66.0691 38.0811 66.2479 38.2598 66.4471 38.418C66.6521 38.5762 66.8777 38.7021 67.1238 38.7959C67.3699 38.8896 67.6395 38.9365 67.9324 38.9365C68.1375 38.9365 68.3279 38.9131 68.5037 38.8662C68.6795 38.8193 68.8436 38.7549 68.9959 38.6729C69.1482 38.5908 69.2947 38.4971 69.4354 38.3916C69.576 38.2803 69.7166 38.1631 69.8572 38.04L70.077 38.251C69.9422 38.4326 69.7693 38.6318 69.5584 38.8486C69.3475 39.0654 69.0926 39.2705 68.7938 39.4639C68.4949 39.6514 68.1463 39.8096 67.7479 39.9385C67.3494 40.0615 66.8953 40.123 66.3855 40.123C65.8758 40.123 65.3777 40.0322 64.8914 39.8506C64.4109 39.6631 63.9832 39.3848 63.6082 39.0156C63.2332 38.6465 62.9314 38.1865 62.7029 37.6357C62.4803 37.085 62.3689 36.4404 62.3689 35.7021C62.3689 35.1689 62.4363 34.6797 62.5711 34.2344C62.7059 33.7891 62.8875 33.3877 63.116 33.0303C63.3504 32.6729 63.6199 32.3594 63.9246 32.0898C64.2352 31.8203 64.5604 31.5977 64.9002 31.4219C65.24 31.2402 65.5857 31.1055 65.9373 31.0176C66.2947 30.9238 66.6375 30.877 66.9656 30.877C67.3992 30.877 67.7771 30.9238 68.0994 31.0176C68.4217 31.1113 68.6883 31.2373 68.8992 31.3955C69.116 31.5537 69.2771 31.7383 69.3826 31.9492C69.4881 32.1543 69.5408 32.3711 69.5408 32.5996C69.5408 32.875 69.4617 33.124 69.3035 33.3467C69.1453 33.5635 68.9344 33.7539 68.6707 33.918L65.199 35.9658ZM66.9656 34.1816C67.0418 34.1348 67.1033 34.0908 67.1502 34.0498C67.2029 34.0029 67.2439 33.9502 67.2732 33.8916C67.3025 33.8271 67.323 33.751 67.3348 33.6631C67.3523 33.5693 67.3611 33.4551 67.3611 33.3203C67.3611 33.1738 67.3436 33.0127 67.3084 32.8369C67.2791 32.6553 67.2264 32.4854 67.1502 32.3271C67.074 32.1689 66.9773 32.0371 66.8602 31.9316C66.743 31.8262 66.6023 31.7734 66.4383 31.7734C66.2273 31.7734 66.0457 31.8379 65.8934 31.9668C65.7469 32.0898 65.6238 32.251 65.5242 32.4502C65.4305 32.6494 65.3543 32.8779 65.2957 33.1357C65.243 33.3877 65.202 33.6426 65.1727 33.9004C65.1434 34.1582 65.1258 34.4072 65.1199 34.6475C65.1141 34.8818 65.1111 35.0811 65.1111 35.2451L66.9656 34.1816Z" fill="black"/>
</svg>
